<svg xmlns="http://www.w3.org/2000/svg" viewBox="0 0 160 110">
  <rect width="160" height="110" fill="#f7f6f4"></rect>

  <rect x="10" y="10" width="60" height="14" rx="2" fill="#ffffff" stroke="#d0cec8" stroke-width="1"></rect>
  <circle cx="76" cy="17" r="3" fill="#d4a13d"></circle>
  <circle cx="76" cy="17" r="6" fill="none" stroke="#d4a13d" stroke-width="1" opacity="0.5"></circle>

  <line x1="40" y1="24" x2="40" y2="36" stroke="#b5b3ac" stroke-width="1"></line>
  <polygon points="40,39 37,34 43,34" fill="#b5b3ac"></polygon>

  <rect x="10" y="40" width="140" height="24" rx="3" fill="#fbeee0" stroke="#d4a13d" stroke-width="1"></rect>
  <rect x="18" y="46" width="60" height="4" rx="1" fill="#8a5a1a" opacity="0.5"></rect>
  <rect x="18" y="54" width="40" height="4" rx="1" fill="#8a5a1a" opacity="0.5"></rect>

  <line x1="80" y1="64" x2="80" y2="73" stroke="#b5b3ac" stroke-width="1"></line>
  <polygon points="80,76 77,71 83,71" fill="#b5b3ac"></polygon>

  <rect x="10" y="78" width="140" height="24" rx="3" fill="#ffffff" stroke="#d0cec8" stroke-width="1"></rect>
  <rect x="18" y="84" width="124" height="4" rx="1" fill="#e0ddd5"></rect>
  <rect x="18" y="92" width="90" height="4" rx="1" fill="#e0ddd5"></rect>

</svg>